<svg xmlns="http://www.w3.org/2000/svg" viewBox="0 0 24 24" id="Shopping-Direct-Mail-Advertising-Envelope-Megaphone--Streamline-Ultimate.svg"><desc>Shopping Direct Mail Advertising Envelope Megaphone Streamline Icon: https://streamlinehq.com</desc><defs></defs><path d="M12.75 15.58H2.25a1.5 1.5 0 0 1 -1.5 -1.5v-12a1.5 1.5 0 0 1 1.5 -1.5h18a1.5 1.5 0 0 1 1.5 1.5v9.5" fill="none" stroke="#000000" stroke-linecap="round" stroke-linejoin="round" stroke-width="1"></path><path d="m21.411 1.13 -8.144 6.264a3.307 3.307 0 0 1 -4.034 0L1.089 1.13" fill="none" stroke="#000000" stroke-linecap="round" stroke-linejoin="round" stroke-width="1"></path><path d="m15.4 21.318 -1.13 0.535a2.084 2.084 0 0 1 -1.783 -3.768l1.13 -0.535Z" fill="none" stroke="#000000" stroke-linecap="round" stroke-linejoin="round" stroke-width="1"></path><path d="M15.4 21.318a12.386 12.386 0 0 1 7.1 -1.059l0.749 0.11 -3.922 -8.289 -0.39 0.649a12.387 12.387 0 0 1 -5.322 4.821Z" fill="none" stroke="#000000" stroke-linecap="round" stroke-linejoin="round" stroke-width="1"></path><path d="M15.4 21.318a4.027 4.027 0 0 0 2.379 2.1" fill="none" stroke="#000000" stroke-linecap="round" stroke-linejoin="round" stroke-width="1"></path></svg>