<svg xmlns="http://www.w3.org/2000/svg" viewBox="0 0 48 48" id="Customer-Retention-Hands--Streamline-Ultimate.svg" height="48" width="48"><desc>Customer Retention Hands Streamline Icon: https://streamlinehq.com</desc><g><g><path d="M24 0a7.82 7.82 0 1 0 7.8 7.8A7.82 7.82 0 0 0 24 0Zm0 12.62a4.8 4.8 0 0 1 -4 -7.36 11.64 11.64 0 0 0 8.66 4A4.82 4.82 0 0 1 24 12.62Z" fill="#000000" stroke-width="1"></path><path d="M35.52 26a12 12 0 0 0 -23.04 0Z" fill="#000000" stroke-width="1"></path></g><g><path d="M8.24 31.68a2.8 2.8 0 0 0 -0.9 3.64L10 39.76a0.98 0.98 0 0 1 -0.34 1.36 1 1 0 0 1 -1.38 -0.34l-2.7 -4.5a4.92 4.92 0 0 1 0.26 -4.96 1.08 1.08 0 0 0 0.16 -0.56V25a3 3 0 0 0 -6 0v10.34a9 9 0 0 0 2 5.62l5.32 6.66A0.98 0.98 0 0 0 8 48h8a1 1 0 0 0 1 -1v-6a8.92 8.92 0 0 0 -1.52 -5c-3.76 -4 -4.94 -5.86 -7.24 -4.32Z" fill="#000000" stroke-width="1"></path><path d="M45 22a3 3 0 0 0 -3 3v5.76a1.08 1.08 0 0 0 0.16 0.56 4.92 4.92 0 0 1 0.26 4.96l-2.7 4.5a1 1 0 0 1 -1.38 0.34 0.98 0.98 0 0 1 -0.34 -1.36l2.66 -4.44a2.8 2.8 0 0 0 -0.9 -3.64c-2.3 -1.54 -3.48 0.36 -7.24 4.3a8.92 8.92 0 0 0 -1.52 5v6a1 1 0 0 0 1 1h8a0.98 0.98 0 0 0 0.78 -0.38L46 40.96a9 9 0 0 0 2 -5.62V25a3 3 0 0 0 -3 -3Z" fill="#000000" stroke-width="1"></path></g></g></svg>