<svg xmlns="http://www.w3.org/2000/svg" fill="none" viewBox="0 0 24 24" id="Contact-Phonebook-2--Streamline-Sharp-Remix.svg"><desc>Contact Phonebook 2 Streamline Icon: https://streamlinehq.com</desc><g id="contact-phonebook-2"><path id="Union" fill="#000000" fill-rule="evenodd" d="M2.75 0h20.5v24H2.75v-3.25H1v-3.5h1.75v-3.5H1v-3.5h1.75v-3.5H1v-3.5h1.75V0Zm2.5 2.5v19h15.5v-19H5.25Zm6.9546 4.35045 -0.2927 -1.02447 -1.0579 0.12674 -2.71242 0.32498 -1.16424 0.13949 0.06486 1.17077c0.09548 1.72374 0.58156 3.43174 1.45968 4.97934 0.49521 0.8728 1.11425 1.693 1.85592 2.4347 0.7417 0.7417 1.5619 1.3607 2.4347 1.8559 1.5476 0.8781 3.2556 1.3642 4.9793 1.4597l1.1708 0.0649 0.1395 -1.1643 0.325 -2.7126 0.1268 -1.0579 -1.0245 -0.2927 -3.3427 -0.9551 -0.9242 -0.2641 -0.4926 0.8253 -0.7437 1.2461c-0.3057 -0.2348 -0.6 -0.4924 -0.8806 -0.773 -0.2806 -0.2806 -0.5382 -0.5749 -0.773 -0.8807l1.2458 -0.7436 0.8253 -0.4926 -0.264 -0.9241 -0.9551 -3.34275Z" clip-rule="evenodd" stroke-width="1"></path></g></svg>