<svg xmlns="http://www.w3.org/2000/svg" viewBox="-0.5 -0.5 14 14" id="User-Add--Streamline-Nova.svg" height="14" width="14"><desc>User Add Streamline Icon: https://streamlinehq.com</desc><defs></defs><path d="M12.870000000000003 2.6780000000000004H10.959000000000001V0.767H9.685V2.6780000000000004H7.774000000000001V3.952000000000001H9.685V5.863H10.959000000000001V3.952000000000001H12.870000000000003V2.6780000000000004Z" fill="#000000" stroke-width="1"></path><path d="M1.4040000000000001 2.0410000000000004C1.4040000000000001 3.5121125000000006 2.9965000000000006 4.431537500000001 4.270500000000001 3.695954166666667C4.861783333333334 3.354595833333334 5.226000000000001 2.7237166666666672 5.226000000000001 2.0410000000000004C5.226000000000001 0.5698875000000001 3.6335000000000006 -0.34953750000000006 2.3595 0.38604583333333337C1.768216666666667 0.7274041666666667 1.4040000000000001 1.3582833333333335 1.4040000000000001 2.0410000000000004" fill="#000000" stroke-width="1"></path><path d="M3.3150000000000004 3.952000000000001C1.5568583333333337 3.9541125000000004 0.13211250000000002 5.3788583333333335 0.13 7.137000000000001V9.048000000000002C0.13 9.399812500000001 0.41518750000000004 9.685 0.767 9.685H1.4040000000000001V12.233000000000002C1.4040000000000001 12.584812500000002 1.6891875000000003 12.870000000000003 2.0410000000000004 12.870000000000003H4.589C4.940812500000001 12.870000000000003 5.226000000000001 12.584812500000002 5.226000000000001 12.233000000000002V9.685H5.863C6.214812500000001 9.685 6.500000000000001 9.399812500000001 6.500000000000001 9.048000000000002V7.137000000000001C6.497887500000001 5.3788583333333335 5.073141666666667 3.9541125000000004 3.3150000000000004 3.952000000000001Z" fill="#000000" stroke-width="1"></path></svg>