<svg xmlns="http://www.w3.org/2000/svg" fill="none" viewBox="0 0 48 48" id="Amazon-Web-Service-Internet-Of-Thing-Analytics-Services-1--Streamline-Ultimate.svg" height="48" width="48"><desc>Amazon Web Service Internet Of Thing Analytics Services 1 Streamline Icon: https://streamlinehq.com</desc><path fill="#000000" fill-rule="evenodd" d="M14.6514 12.594C14.6514 7.4306 18.837 3.2448 24.0006 3.2448C29.164 3.2448 33.3498 7.4306 33.3498 12.594C33.3498 14.4074 32.8334 16.1004 31.9398 17.5336L36.3598 22.3112C36.835 22.1486 37.345 22.0604 37.8756 22.0604C40.4632 22.0604 42.561 24.1582 42.561 26.7458S40.4632 31.4312 37.8756 31.4312S33.19 29.3334 33.19 26.7458C33.19 26.1408 33.3048 25.5626 33.5136 25.0314L29.1978 20.3666C28.2334 21.013 27.1418 21.4844 25.9686 21.7356V28.4166C27.573 29.1602 28.6858 30.785 28.6858 32.6698C28.6858 35.2576 26.5882 37.3552 24.0006 37.3552C21.4128 37.3552 19.3152 35.2576 19.3152 32.6698C19.3152 30.785 20.4278 29.1604 22.032 28.4166V21.7356C20.8592 21.4844 19.7676 21.013 18.8032 20.3666L14.4866 25.0324C14.6952 25.5632 14.8098 26.141 14.8098 26.7458C14.8098 29.3334 12.712 31.4312 10.1244 31.4312C7.5368 31.4312 5.439 29.3334 5.439 26.7458S7.5368 22.0604 10.1244 22.0604C10.6552 22.0604 11.1654 22.1488 11.6412 22.3114L16.0614 17.5338C15.1676 16.1004 14.6514 14.4076 14.6514 12.594ZM30.0982 37.2696C28.704 39.115 26.4916 40.3074 24.0006 40.3074C21.5186 40.3074 19.313 39.1236 17.918 37.2898L15.2742 38.3696C14.7232 38.5946 14.3612 39.1284 14.356 39.7236C14.351 40.3186 14.7038 40.8586 15.2508 41.093L23.5172 44.6358C23.8928 44.7966 24.3182 44.795 24.6924 44.6306L32.7622 41.0876C33.3028 40.8504 33.65 40.3136 33.645 39.7232C33.6396 39.1328 33.2832 38.6022 32.7384 38.3742L30.0982 37.2696ZM16.4604 31.4454L16.2222 31.3458C14.828 33.191 12.6154 34.3836 10.1244 34.3836C7.6424 34.3836 5.437 33.1998 4.042 31.3658L1.398 32.4454C0.8472 32.6704 0.4852 33.2042 0.48 33.7994C0.475 34.3946 0.8276 34.9346 1.3746 35.169L9.6414 38.7118C10.0168 38.8728 10.4422 38.8708 10.8162 38.7066L17.1 35.948C16.6272 34.9546 16.3628 33.8432 16.3628 32.6698C16.3628 32.253 16.3962 31.844 16.4604 31.4454ZM31.6384 32.6698C31.6384 33.837 31.3764 34.9434 30.908 35.9328L37.3924 38.7118C37.768 38.8728 38.1934 38.8708 38.5674 38.7066L46.6372 35.1638C47.1778 34.9264 47.525 34.3898 47.52 33.7992C47.5148 33.2088 47.1584 32.6782 46.6136 32.4502L43.9734 31.3458C42.579 33.191 40.3666 34.3836 37.8754 34.3836C35.3936 34.3836 33.188 33.1998 31.793 31.3658L31.5442 31.4674C31.606 31.8592 31.6384 32.2606 31.6384 32.6698Z" clip-rule="evenodd" stroke-width="1"></path></svg>